<svg xmlns="http://www.w3.org/2000/svg" viewBox="0 0 100 100">
  <rect width="100" height="100" rx="22" fill="#0A2540"/>
  <!-- c -->
  <path d="M43,65 C 33,65 25,58 25,50 C 25,42 33,35 43,35 C 48,35 52,37 55,40 L 49,47 C 47,45 45,44 43,44 C 40,44 37,46 37,50 C 37,54 40,56 43,56 C 45,56 47,55 49,53 L 55,60 C 52,63 48,65 43,65 Z" fill="white"/>
  <!-- v -->
  <path d="M52,36 L 60,36 L 68,53 L 76,36 L 84,36 L 71,64 L 65,64 Z" fill="white"/>
  <!-- dot -->
  <circle cx="85" cy="25" r="9" fill="#1A56DB"/>
</svg>
